<mxfile host="app.diagrams.net" modified="2023-08-13T10:23:31.101Z" agent="Mozilla/5.0 (Windows NT 10.0; Win64; x64) AppleWebKit/537.36 (KHTML, like Gecko) Chrome/115.0.0.0 Safari/537.36 Edg/115.0.1901.200" etag="V939HBv_0YR8dlZP9tCd" version="21.6.8" type="github">
  <diagram name="Page-1" id="YMUWvuPn950znNVhKZj5">
    <mxGraphModel dx="913" dy="496" grid="1" gridSize="10" guides="1" tooltips="1" connect="1" arrows="1" fold="1" page="1" pageScale="1" pageWidth="850" pageHeight="1100" math="0" shadow="0">
      <root>
        <mxCell id="0" />
        <mxCell id="1" parent="0" />
        <mxCell id="kHxOpbtlPbJRALbZ37O7-12" style="edgeStyle=orthogonalEdgeStyle;rounded=0;orthogonalLoop=1;jettySize=auto;html=1;entryX=0.5;entryY=0;entryDx=0;entryDy=0;" edge="1" parent="1" source="kHxOpbtlPbJRALbZ37O7-1" target="kHxOpbtlPbJRALbZ37O7-6">
          <mxGeometry relative="1" as="geometry" />
        </mxCell>
        <mxCell id="kHxOpbtlPbJRALbZ37O7-1" value="Start" style="ellipse;whiteSpace=wrap;html=1;" vertex="1" parent="1">
          <mxGeometry x="170" y="40" width="120" height="80" as="geometry" />
        </mxCell>
        <mxCell id="kHxOpbtlPbJRALbZ37O7-10" value="true" style="edgeStyle=orthogonalEdgeStyle;rounded=0;orthogonalLoop=1;jettySize=auto;html=1;entryX=0.5;entryY=0;entryDx=0;entryDy=0;" edge="1" parent="1" source="kHxOpbtlPbJRALbZ37O7-3" target="kHxOpbtlPbJRALbZ37O7-4">
          <mxGeometry relative="1" as="geometry" />
        </mxCell>
        <mxCell id="kHxOpbtlPbJRALbZ37O7-15" value="false" style="edgeStyle=orthogonalEdgeStyle;rounded=0;orthogonalLoop=1;jettySize=auto;html=1;entryX=0;entryY=0.5;entryDx=0;entryDy=0;" edge="1" parent="1" source="kHxOpbtlPbJRALbZ37O7-3" target="kHxOpbtlPbJRALbZ37O7-14">
          <mxGeometry x="-0.2" relative="1" as="geometry">
            <Array as="points">
              <mxPoint x="370" y="340" />
            </Array>
            <mxPoint as="offset" />
          </mxGeometry>
        </mxCell>
        <mxCell id="kHxOpbtlPbJRALbZ37O7-3" value="n&amp;gt;0" style="rhombus;whiteSpace=wrap;html=1;" vertex="1" parent="1">
          <mxGeometry x="190" y="300" width="80" height="80" as="geometry" />
        </mxCell>
        <mxCell id="kHxOpbtlPbJRALbZ37O7-13" style="edgeStyle=orthogonalEdgeStyle;rounded=0;orthogonalLoop=1;jettySize=auto;html=1;entryX=0;entryY=0.5;entryDx=0;entryDy=0;" edge="1" parent="1" source="kHxOpbtlPbJRALbZ37O7-4" target="kHxOpbtlPbJRALbZ37O7-3">
          <mxGeometry relative="1" as="geometry">
            <mxPoint x="70" y="400" as="targetPoint" />
            <Array as="points">
              <mxPoint x="120" y="520" />
              <mxPoint x="120" y="340" />
            </Array>
          </mxGeometry>
        </mxCell>
        <mxCell id="kHxOpbtlPbJRALbZ37O7-4" value="digit = n%10&lt;br&gt;sum = sum + digit&lt;br&gt;n = (n-digit)/10&lt;br&gt;(6743-3)/10=674" style="rounded=0;whiteSpace=wrap;html=1;" vertex="1" parent="1">
          <mxGeometry x="170" y="490" width="120" height="80" as="geometry" />
        </mxCell>
        <mxCell id="kHxOpbtlPbJRALbZ37O7-11" style="edgeStyle=orthogonalEdgeStyle;rounded=0;orthogonalLoop=1;jettySize=auto;html=1;entryX=0.5;entryY=0;entryDx=0;entryDy=0;" edge="1" parent="1" source="kHxOpbtlPbJRALbZ37O7-6" target="kHxOpbtlPbJRALbZ37O7-3">
          <mxGeometry relative="1" as="geometry" />
        </mxCell>
        <mxCell id="kHxOpbtlPbJRALbZ37O7-6" value="n, sum=0" style="shape=parallelogram;perimeter=parallelogramPerimeter;whiteSpace=wrap;html=1;fixedSize=1;" vertex="1" parent="1">
          <mxGeometry x="170" y="150" width="120" height="60" as="geometry" />
        </mxCell>
        <mxCell id="kHxOpbtlPbJRALbZ37O7-7" value="&lt;font style=&quot;font-size: 22px;&quot;&gt;6743&lt;br&gt;digit - son reqem&lt;br&gt;&lt;/font&gt;" style="rounded=1;whiteSpace=wrap;html=1;" vertex="1" parent="1">
          <mxGeometry x="570" y="45" width="170" height="70" as="geometry" />
        </mxCell>
        <mxCell id="kHxOpbtlPbJRALbZ37O7-17" style="edgeStyle=orthogonalEdgeStyle;rounded=0;orthogonalLoop=1;jettySize=auto;html=1;" edge="1" parent="1" source="kHxOpbtlPbJRALbZ37O7-14">
          <mxGeometry relative="1" as="geometry">
            <mxPoint x="570" y="345" as="targetPoint" />
          </mxGeometry>
        </mxCell>
        <mxCell id="kHxOpbtlPbJRALbZ37O7-14" value="sum" style="shape=document;whiteSpace=wrap;html=1;boundedLbl=1;" vertex="1" parent="1">
          <mxGeometry x="370" y="310" width="100" height="70" as="geometry" />
        </mxCell>
        <mxCell id="kHxOpbtlPbJRALbZ37O7-16" value="End" style="ellipse;whiteSpace=wrap;html=1;" vertex="1" parent="1">
          <mxGeometry x="570" y="305" width="120" height="75" as="geometry" />
        </mxCell>
        <mxCell id="kHxOpbtlPbJRALbZ37O7-33" style="edgeStyle=orthogonalEdgeStyle;rounded=0;orthogonalLoop=1;jettySize=auto;html=1;entryX=0.5;entryY=0;entryDx=0;entryDy=0;" edge="1" parent="1" source="kHxOpbtlPbJRALbZ37O7-34" target="kHxOpbtlPbJRALbZ37O7-41">
          <mxGeometry relative="1" as="geometry" />
        </mxCell>
        <mxCell id="kHxOpbtlPbJRALbZ37O7-34" value="Start" style="ellipse;whiteSpace=wrap;html=1;" vertex="1" parent="1">
          <mxGeometry x="1010" y="40" width="120" height="80" as="geometry" />
        </mxCell>
        <mxCell id="kHxOpbtlPbJRALbZ37O7-35" value="true" style="edgeStyle=orthogonalEdgeStyle;rounded=0;orthogonalLoop=1;jettySize=auto;html=1;entryX=0.5;entryY=0;entryDx=0;entryDy=0;" edge="1" parent="1" source="kHxOpbtlPbJRALbZ37O7-37" target="kHxOpbtlPbJRALbZ37O7-39">
          <mxGeometry relative="1" as="geometry" />
        </mxCell>
        <mxCell id="kHxOpbtlPbJRALbZ37O7-36" value="false" style="edgeStyle=orthogonalEdgeStyle;rounded=0;orthogonalLoop=1;jettySize=auto;html=1;entryX=0;entryY=0.5;entryDx=0;entryDy=0;" edge="1" parent="1" source="kHxOpbtlPbJRALbZ37O7-37" target="kHxOpbtlPbJRALbZ37O7-44">
          <mxGeometry x="-0.2" relative="1" as="geometry">
            <Array as="points">
              <mxPoint x="1210" y="545" />
            </Array>
            <mxPoint as="offset" />
          </mxGeometry>
        </mxCell>
        <mxCell id="kHxOpbtlPbJRALbZ37O7-37" value="n&amp;lt;0" style="rhombus;whiteSpace=wrap;html=1;" vertex="1" parent="1">
          <mxGeometry x="1030" y="505" width="80" height="80" as="geometry" />
        </mxCell>
        <mxCell id="kHxOpbtlPbJRALbZ37O7-38" style="edgeStyle=orthogonalEdgeStyle;rounded=0;orthogonalLoop=1;jettySize=auto;html=1;entryX=0;entryY=0.5;entryDx=0;entryDy=0;" edge="1" parent="1" source="kHxOpbtlPbJRALbZ37O7-39" target="kHxOpbtlPbJRALbZ37O7-37">
          <mxGeometry relative="1" as="geometry">
            <mxPoint x="910" y="605" as="targetPoint" />
            <Array as="points">
              <mxPoint x="960" y="725" />
              <mxPoint x="960" y="545" />
            </Array>
          </mxGeometry>
        </mxCell>
        <mxCell id="kHxOpbtlPbJRALbZ37O7-39" value="digit = n%10&lt;br&gt;sum = sum + digit&lt;br&gt;n = (n-digit)/10&lt;br&gt;(6743-3)/10=674" style="rounded=0;whiteSpace=wrap;html=1;" vertex="1" parent="1">
          <mxGeometry x="1010" y="695" width="120" height="80" as="geometry" />
        </mxCell>
        <mxCell id="kHxOpbtlPbJRALbZ37O7-51" style="edgeStyle=orthogonalEdgeStyle;rounded=0;orthogonalLoop=1;jettySize=auto;html=1;entryX=0.5;entryY=0;entryDx=0;entryDy=0;" edge="1" parent="1" source="kHxOpbtlPbJRALbZ37O7-41" target="kHxOpbtlPbJRALbZ37O7-50">
          <mxGeometry relative="1" as="geometry" />
        </mxCell>
        <mxCell id="kHxOpbtlPbJRALbZ37O7-41" value="n, sum=0" style="shape=parallelogram;perimeter=parallelogramPerimeter;whiteSpace=wrap;html=1;fixedSize=1;" vertex="1" parent="1">
          <mxGeometry x="1010" y="150" width="120" height="60" as="geometry" />
        </mxCell>
        <mxCell id="kHxOpbtlPbJRALbZ37O7-42" value="&lt;font style=&quot;font-size: 22px;&quot;&gt;6743&lt;br&gt;digit - son reqem&lt;br&gt;&lt;/font&gt;" style="rounded=1;whiteSpace=wrap;html=1;" vertex="1" parent="1">
          <mxGeometry x="1410" y="45" width="170" height="70" as="geometry" />
        </mxCell>
        <mxCell id="kHxOpbtlPbJRALbZ37O7-43" style="edgeStyle=orthogonalEdgeStyle;rounded=0;orthogonalLoop=1;jettySize=auto;html=1;" edge="1" parent="1" source="kHxOpbtlPbJRALbZ37O7-44">
          <mxGeometry relative="1" as="geometry">
            <mxPoint x="1410" y="550" as="targetPoint" />
          </mxGeometry>
        </mxCell>
        <mxCell id="kHxOpbtlPbJRALbZ37O7-44" value="sum" style="shape=document;whiteSpace=wrap;html=1;boundedLbl=1;" vertex="1" parent="1">
          <mxGeometry x="1210" y="515" width="100" height="70" as="geometry" />
        </mxCell>
        <mxCell id="kHxOpbtlPbJRALbZ37O7-45" value="End" style="ellipse;whiteSpace=wrap;html=1;" vertex="1" parent="1">
          <mxGeometry x="1410" y="510" width="120" height="75" as="geometry" />
        </mxCell>
        <mxCell id="kHxOpbtlPbJRALbZ37O7-49" value="true" style="edgeStyle=orthogonalEdgeStyle;rounded=0;orthogonalLoop=1;jettySize=auto;html=1;entryX=0.5;entryY=0;entryDx=0;entryDy=0;" edge="1" parent="1" source="kHxOpbtlPbJRALbZ37O7-47" target="kHxOpbtlPbJRALbZ37O7-37">
          <mxGeometry relative="1" as="geometry" />
        </mxCell>
        <mxCell id="kHxOpbtlPbJRALbZ37O7-47" value="n = n*-1" style="rounded=0;whiteSpace=wrap;html=1;" vertex="1" parent="1">
          <mxGeometry x="1010" y="370" width="120" height="60" as="geometry" />
        </mxCell>
        <mxCell id="kHxOpbtlPbJRALbZ37O7-52" style="edgeStyle=orthogonalEdgeStyle;rounded=0;orthogonalLoop=1;jettySize=auto;html=1;entryX=0.5;entryY=0;entryDx=0;entryDy=0;" edge="1" parent="1" source="kHxOpbtlPbJRALbZ37O7-50" target="kHxOpbtlPbJRALbZ37O7-47">
          <mxGeometry relative="1" as="geometry" />
        </mxCell>
        <mxCell id="kHxOpbtlPbJRALbZ37O7-53" value="false" style="edgeStyle=orthogonalEdgeStyle;rounded=0;orthogonalLoop=1;jettySize=auto;html=1;entryX=0.655;entryY=0.16;entryDx=0;entryDy=0;exitX=1;exitY=0;exitDx=0;exitDy=0;entryPerimeter=0;" edge="1" parent="1" source="kHxOpbtlPbJRALbZ37O7-50" target="kHxOpbtlPbJRALbZ37O7-37">
          <mxGeometry relative="1" as="geometry">
            <mxPoint x="1110.0000000000002" y="497.5" as="targetPoint" />
            <mxPoint x="1130.0000000000002" y="272.5" as="sourcePoint" />
            <Array as="points">
              <mxPoint x="1090" y="300" />
              <mxPoint x="1191" y="300" />
              <mxPoint x="1191" y="510" />
              <mxPoint x="1082" y="510" />
            </Array>
          </mxGeometry>
        </mxCell>
        <mxCell id="kHxOpbtlPbJRALbZ37O7-50" value="n&amp;gt;0" style="rhombus;whiteSpace=wrap;html=1;" vertex="1" parent="1">
          <mxGeometry x="1030" y="260" width="80" height="80" as="geometry" />
        </mxCell>
      </root>
    </mxGraphModel>
  </diagram>
</mxfile>
